<?xml version="1.0" standalone="no"?>
<!DOCTYPE svg PUBLIC "-//W3C//DTD SVG 20010904//EN"
 "http://www.w3.org/TR/2001/REC-SVG-20010904/DTD/svg10.dtd">
<svg version="1.0" xmlns="http://www.w3.org/2000/svg"
 width="1600.000000pt" height="1200.000000pt" viewBox="0 0 1600.000000 1200.000000"
 preserveAspectRatio="xMidYMid meet">

<g transform="translate(0.000000,1200.000000) scale(0.100000,-0.100000)"
fill="#4d4dc7" stroke="none" >
<path d="M0 6000 l0 -6000 8000 0 8000 0 0 6000 0 6000 -8000 0 -8000 0 0
-6000z m8063 1515 c247 -52 419 -299 377 -543 -48 -287 -322 -466 -601 -394
-236 62 -392 303 -351 544 40 232 234 400 472 407 19 0 65 -6 103 -14z m-823
-950 l480 -480 0 -592 0 -592 -22 -15 c-34 -24 -642 -24 -676 0 l-22 15 0 411
c0 369 -2 413 -17 430 -9 10 -25 18 -37 18 -14 0 -165 -144 -466 -445 l-446
-445 -425 0 c-452 0 -449 0 -464 49 -6 21 62 92 644 675 403 404 651 659 651
670 0 11 -7 28 -17 38 -15 17 -42 18 -426 18 -368 0 -412 2 -429 17 -17 15
-18 39 -18 343 0 335 2 349 40 363 8 3 275 5 592 4 l578 -2 480 -480z m3121
456 c18 -22 19 -43 19 -342 0 -306 -1 -320 -20 -339 -19 -19 -33 -20 -429 -20
-443 0 -441 0 -441 -53 0 -15 188 -210 645 -667 687 -687 677 -676 623 -714
-19 -14 -79 -16 -442 -16 l-420 0 -446 445 c-313 312 -452 445 -467 445 -53 0
-53 2 -53 -441 0 -396 -1 -410 -20 -429 -19 -19 -33 -20 -343 -20 -263 0 -327
3 -343 14 -18 14 -19 34 -22 602 l-2 588 477 479 c263 263 487 483 498 487 11
5 278 8 593 7 l574 -2 19 -24z m475 -2 c25 -28 22 -78 -5 -101 -49 -39 -121
-9 -121 50 0 71 79 103 126 51z"/>
<path d="M10734 7004 c-37 -55 25 -117 80 -80 18 11 26 25 26 45 0 59 -75 84
-106 35z m74 4 c7 -7 12 -16 12 -22 0 -6 -5 -5 -12 2 -22 22 -48 14 -48 -13 0
-31 24 -43 47 -24 14 12 16 12 11 -1 -2 -8 -15 -16 -27 -18 -45 -7 -67 40 -35
72 19 19 36 20 52 4z"/>
</g>
</svg>
